<?xml version="1.0" encoding="UTF-8"?>
<svg width="192px" height="64px" viewBox="0 0 192 64" version="1.1" xmlns="http://www.w3.org/2000/svg" xmlns:xlink="http://www.w3.org/1999/xlink">
    <title>arena-animation</title>
    <g id="arena-animation" stroke="none" stroke-width="1" fill="none" fill-rule="evenodd">
        <g id="Group" transform="translate(20.000000, 12.000000)" fill="#EA5E52">
            <rect id="Rectangle-Copy-43" x="0" y="0" width="8" height="8"></rect>
        </g>
        <g id="Group-Copy-10" transform="translate(92.000000, 12.000000)" fill="#EA5E52">
            <rect id="Rectangle-Copy-43" x="0" y="0" width="8" height="8"></rect>
        </g>
        <g id="Group-Copy" transform="translate(36.000000, 28.000000)" fill="#EA5E52">
            <rect id="Rectangle-Copy-43" x="0" y="0" width="8" height="8"></rect>
        </g>
        <g id="Group-Copy-11" transform="translate(92.000000, 28.000000)" fill="#EA5E52">
            <rect id="Rectangle-Copy-43" x="0" y="0" width="8" height="8"></rect>
        </g>
        <g id="Group-Copy-2" transform="translate(20.000000, 20.000000)" fill="#EA5E52">
            <rect id="Rectangle-Copy-43" x="0" y="0" width="8" height="8"></rect>
        </g>
        <g id="Group-Copy-12" transform="translate(84.000000, 20.000000)" fill="#EA5E52">
            <rect id="Rectangle-Copy-43" x="0" y="0" width="8" height="8"></rect>
        </g>
        <g id="Group-Copy-6" transform="translate(36.000000, 36.000000)" fill="#EA5E52">
            <rect id="Rectangle-Copy-43" x="0" y="0" width="8" height="8"></rect>
        </g>
        <g id="Group-Copy-13" transform="translate(100.000000, 36.000000)" fill="#EA5E52">
            <rect id="Rectangle-Copy-43" x="0" y="0" width="8" height="8"></rect>
        </g>
        <g id="Group-Copy-4" transform="translate(28.000000, 20.000000)" fill="#EA5E52">
            <rect id="Rectangle-Copy-43" x="0" y="0" width="8" height="8"></rect>
        </g>
        <g id="Group-Copy-14" transform="translate(92.000000, 28.000000)" fill="#EA5E52">
            <rect id="Rectangle-Copy-43" x="0" y="0" width="8" height="8"></rect>
        </g>
        <g id="Group-Copy-7" transform="translate(44.000000, 36.000000)" fill="#EA5E52">
            <rect id="Rectangle-Copy-43" x="0" y="0" width="8" height="8"></rect>
        </g>
        <g id="Group-Copy-15" transform="translate(108.000000, 28.000000)" fill="#EA5E52">
            <rect id="Rectangle-Copy-43" x="0" y="0" width="8" height="8"></rect>
        </g>
        <g id="Group-Copy-3" transform="translate(12.000000, 20.000000)" fill="#EA5E52">
            <rect id="Rectangle-Copy-43" x="0" y="0" width="8" height="8"></rect>
        </g>
        <g id="Group-Copy-16" transform="translate(76.000000, 12.000000)" fill="#EA5E52">
            <rect id="Rectangle-Copy-43" x="0" y="0" width="8" height="8"></rect>
        </g>
        <g id="Group-Copy-8" transform="translate(28.000000, 36.000000)" fill="#EA5E52">
            <rect id="Rectangle-Copy-43" x="0" y="0" width="8" height="8"></rect>
        </g>
        <g id="Group-Copy-17" transform="translate(92.000000, 44.000000)" fill="#EA5E52">
            <rect id="Rectangle-Copy-43" x="0" y="0" width="8" height="8"></rect>
        </g>
        <g id="Group-Copy-5" transform="translate(20.000000, 28.000000)" fill="#EA5E52">
            <rect id="Rectangle-Copy-43" x="0" y="0" width="8" height="8"></rect>
        </g>
        <g id="Group-Copy-18" transform="translate(76.000000, 28.000000)" fill="#EA5E52">
            <rect id="Rectangle-Copy-43" x="0" y="0" width="8" height="8"></rect>
        </g>
        <g id="Group-Copy-9" transform="translate(36.000000, 44.000000)" fill="#EA5E52">
            <rect id="Rectangle-Copy-43" x="0" y="0" width="8" height="8"></rect>
        </g>
        <g id="Group-Copy-19" transform="translate(108.000000, 44.000000)" fill="#EA5E52">
            <rect id="Rectangle-Copy-43" x="0" y="0" width="8" height="8"></rect>
        </g>
        <g id="Group-Copy-29" transform="translate(148.000000, 12.000000)" fill="#EA5E52">
            <rect id="Rectangle-Copy-43" x="0" y="0" width="8" height="8"></rect>
        </g>
        <g id="Group-Copy-28" transform="translate(164.000000, 28.000000)" fill="#EA5E52">
            <rect id="Rectangle-Copy-43" x="0" y="0" width="8" height="8"></rect>
        </g>
        <g id="Group-Copy-27" transform="translate(148.000000, 20.000000)" fill="#EA5E52">
            <rect id="Rectangle-Copy-43" x="0" y="0" width="8" height="8"></rect>
        </g>
        <g id="Group-Copy-26" transform="translate(164.000000, 36.000000)" fill="#EA5E52">
            <rect id="Rectangle-Copy-43" x="0" y="0" width="8" height="8"></rect>
        </g>
        <g id="Group-Copy-25" transform="translate(156.000000, 20.000000)" fill="#EA5E52">
            <rect id="Rectangle-Copy-43" x="0" y="0" width="8" height="8"></rect>
        </g>
        <g id="Group-Copy-24" transform="translate(172.000000, 36.000000)" fill="#EA5E52">
            <rect id="Rectangle-Copy-43" x="0" y="0" width="8" height="8"></rect>
        </g>
        <g id="Group-Copy-23" transform="translate(140.000000, 20.000000)" fill="#EA5E52">
            <rect id="Rectangle-Copy-43" x="0" y="0" width="8" height="8"></rect>
        </g>
        <g id="Group-Copy-22" transform="translate(156.000000, 36.000000)" fill="#EA5E52">
            <rect id="Rectangle-Copy-43" x="0" y="0" width="8" height="8"></rect>
        </g>
        <g id="Group-Copy-21" transform="translate(148.000000, 28.000000)" fill="#EA5E52">
            <rect id="Rectangle-Copy-43" x="0" y="0" width="8" height="8"></rect>
        </g>
        <g id="Group-Copy-20" transform="translate(164.000000, 44.000000)" fill="#EA5E52">
            <rect id="Rectangle-Copy-43" x="0" y="0" width="8" height="8"></rect>
        </g>
    </g>
</svg>