<?xml version="1.0" encoding="UTF-8"?>
<svg width="192px" height="64px" viewBox="0 0 192 64" version="1.1" xmlns="http://www.w3.org/2000/svg" xmlns:xlink="http://www.w3.org/1999/xlink">
    <title>chat-animation</title>
    <g id="chat-animation" stroke="none" stroke-width="1" fill="none" fill-rule="evenodd">
        <g id="Group-Copy-5" transform="translate(12.000000, 12.000000)" fill="#039078">
            <rect id="Rectangle-Copy-51" x="8" y="0" width="8" height="8"></rect>
            <rect id="Rectangle-Copy-54" x="0" y="8" width="8" height="8"></rect>
            <rect id="Rectangle-Copy-55" x="0" y="16" width="8" height="8"></rect>
            <rect id="Rectangle-Copy-56" x="8" y="24" width="8" height="8"></rect>
            <rect id="Rectangle-Copy-61" x="0" y="32" width="8" height="8"></rect>
            <rect id="Rectangle-Copy-57" x="16" y="24" width="8" height="8"></rect>
            <rect id="Rectangle-Copy-58" x="24" y="24" width="8" height="8"></rect>
            <rect id="Rectangle-Copy-52" x="16" y="0" width="8" height="8"></rect>
            <rect id="Rectangle-Copy-53" x="24" y="0" width="8" height="8"></rect>
            <rect id="Rectangle-Copy-59" x="32" y="8" width="8" height="8"></rect>
            <rect id="Rectangle-Copy-60" x="32" y="16" width="8" height="8"></rect>
        </g>
        <g id="Group-Copy-6" transform="translate(76.000000, 12.000000)" fill="#039078">
            <rect id="Rectangle-Copy-51" x="8" y="0" width="8" height="8"></rect>
            <rect id="Rectangle-Copy-54" x="0" y="8" width="8" height="8"></rect>
            <rect id="Rectangle-Copy-62" x="12" y="12" width="8" height="8"></rect>
            <rect id="Rectangle-Copy-55" x="0" y="16" width="8" height="8"></rect>
            <rect id="Rectangle-Copy-56" x="8" y="24" width="8" height="8"></rect>
            <rect id="Rectangle-Copy-61" x="0" y="32" width="8" height="8"></rect>
            <rect id="Rectangle-Copy-57" x="16" y="24" width="8" height="8"></rect>
            <rect id="Rectangle-Copy-58" x="24" y="24" width="8" height="8"></rect>
            <rect id="Rectangle-Copy-52" x="16" y="0" width="8" height="8"></rect>
            <rect id="Rectangle-Copy-53" x="24" y="0" width="8" height="8"></rect>
            <rect id="Rectangle-Copy-59" x="32" y="8" width="8" height="8"></rect>
            <rect id="Rectangle-Copy-60" x="32" y="16" width="8" height="8"></rect>
        </g>
        <g id="Group-Copy-7" transform="translate(140.000000, 12.000000)" fill="#039078">
            <rect id="Rectangle-Copy-51" x="8" y="0" width="8" height="8"></rect>
            <rect id="Rectangle-Copy-54" x="0" y="8" width="8" height="8"></rect>
            <rect id="Rectangle-Copy-63" x="20" y="12" width="8" height="8"></rect>
            <rect id="Rectangle-Copy-55" x="0" y="16" width="8" height="8"></rect>
            <rect id="Rectangle-Copy-56" x="8" y="24" width="8" height="8"></rect>
            <rect id="Rectangle-Copy-61" x="0" y="32" width="8" height="8"></rect>
            <rect id="Rectangle-Copy-57" x="16" y="24" width="8" height="8"></rect>
            <rect id="Rectangle-Copy-58" x="24" y="24" width="8" height="8"></rect>
            <rect id="Rectangle-Copy-52" x="16" y="0" width="8" height="8"></rect>
            <rect id="Rectangle-Copy-53" x="24" y="0" width="8" height="8"></rect>
            <rect id="Rectangle-Copy-59" x="32" y="8" width="8" height="8"></rect>
            <rect id="Rectangle-Copy-60" x="32" y="16" width="8" height="8"></rect>
        </g>
    </g>
</svg>