<?xml version="1.0" encoding="UTF-8"?>
<svg width="192px" height="64px" viewBox="0 0 192 64" version="1.1" xmlns="http://www.w3.org/2000/svg" xmlns:xlink="http://www.w3.org/1999/xlink">
    <title>coffee-animation copy</title>
    <g id="coffee-animation-copy" stroke="none" stroke-width="1" fill="none" fill-rule="evenodd">
        <g id="Group" transform="translate(4.000000, 4.000000)" fill="#F8BE04">
            <rect id="Rectangle-Copy-24" x="0" y="32" width="8" height="8"></rect>
            <rect id="Rectangle-Copy-36" x="0" y="40" width="8" height="8"></rect>
            <rect id="Rectangle-Copy-37" x="8" y="48" width="8" height="8"></rect>
            <rect id="Rectangle-Copy-38" x="16" y="48" width="8" height="8"></rect>
            <rect id="Rectangle-Copy-39" x="24" y="48" width="8" height="8"></rect>
            <rect id="Rectangle-Copy-40" x="32" y="40" width="8" height="8"></rect>
            <rect id="Rectangle-Copy-25" x="0" y="24" width="8" height="8"></rect>
            <rect id="Rectangle-Copy-26" x="8" y="24" width="8" height="8"></rect>
            <rect id="Rectangle-Copy-42" x="8" y="8" width="8" height="8"></rect>
            <rect id="Rectangle-Copy-43" x="16" y="0" width="8" height="8"></rect>
            <rect id="Rectangle-Copy-27" x="16" y="24" width="8" height="8"></rect>
            <rect id="Rectangle-Copy-29" x="24" y="24" width="8" height="8"></rect>
            <rect id="Rectangle-Copy-34" x="24" y="16" width="8" height="8"></rect>
            <rect id="Rectangle-Copy-35" x="32" y="8" width="8" height="8"></rect>
            <rect id="Rectangle-Copy-30" x="32" y="24" width="8" height="8"></rect>
            <rect id="Rectangle-Copy-31" x="40" y="24" width="8" height="8"></rect>
            <rect id="Rectangle-Copy-32" x="48" y="32" width="8" height="8"></rect>
            <rect id="Rectangle-Copy-33" x="40" y="40" width="8" height="8"></rect>
            <rect id="Rectangle-Copy-28" x="32" y="32" width="8" height="8"></rect>
        </g>
        <g id="Group-Copy" transform="translate(68.000000, 4.000000)" fill="#F8BE04">
            <rect id="Rectangle-Copy-24" x="0" y="32" width="8" height="8"></rect>
            <rect id="Rectangle-Copy-36" x="0" y="40" width="8" height="8"></rect>
            <rect id="Rectangle-Copy-37" x="8" y="48" width="8" height="8"></rect>
            <rect id="Rectangle-Copy-38" x="16" y="48" width="8" height="8"></rect>
            <rect id="Rectangle-Copy-39" x="24" y="48" width="8" height="8"></rect>
            <rect id="Rectangle-Copy-40" x="32" y="40" width="8" height="8"></rect>
            <rect id="Rectangle-Copy-25" x="0" y="24" width="8" height="8"></rect>
            <rect id="Rectangle-Copy-26" x="8" y="24" width="8" height="8"></rect>
            <rect id="Rectangle-Copy-44" x="8" y="0" width="8" height="8"></rect>
            <rect id="Rectangle-Copy-46" x="8" y="8" width="8" height="8"></rect>
            <rect id="Rectangle-Copy-27" x="16" y="24" width="8" height="8"></rect>
            <rect id="Rectangle-Copy-29" x="24" y="24" width="8" height="8"></rect>
            <rect id="Rectangle-Copy-35" x="24" y="8" width="8" height="8"></rect>
            <rect id="Rectangle-Copy-45" x="24" y="16" width="8" height="8"></rect>
            <rect id="Rectangle-Copy-30" x="32" y="24" width="8" height="8"></rect>
            <rect id="Rectangle-Copy-31" x="40" y="24" width="8" height="8"></rect>
            <rect id="Rectangle-Copy-32" x="48" y="32" width="8" height="8"></rect>
            <rect id="Rectangle-Copy-33" x="40" y="40" width="8" height="8"></rect>
            <rect id="Rectangle-Copy-28" x="32" y="32" width="8" height="8"></rect>
        </g>
        <g id="Group-Copy-2" transform="translate(132.000000, 4.000000)" fill="#F8BE04">
            <rect id="Rectangle-Copy-24" x="0" y="32" width="8" height="8"></rect>
            <rect id="Rectangle-Copy-36" x="0" y="40" width="8" height="8"></rect>
            <rect id="Rectangle-Copy-37" x="8" y="48" width="8" height="8"></rect>
            <rect id="Rectangle-Copy-38" x="16" y="48" width="8" height="8"></rect>
            <rect id="Rectangle-Copy-39" x="24" y="48" width="8" height="8"></rect>
            <rect id="Rectangle-Copy-40" x="32" y="40" width="8" height="8"></rect>
            <rect id="Rectangle-Copy-25" x="0" y="24" width="8" height="8"></rect>
            <rect id="Rectangle-Copy-26" x="8" y="24" width="8" height="8"></rect>
            <rect id="Rectangle-Copy-27" x="16" y="24" width="8" height="8"></rect>
            <rect id="Rectangle-Copy-29" x="24" y="24" width="8" height="8"></rect>
            <rect id="Rectangle-Copy-35" x="16" y="8" width="8" height="8"></rect>
            <rect id="Rectangle-Copy-47" x="0" y="0" width="8" height="8"></rect>
            <rect id="Rectangle-Copy-30" x="32" y="24" width="8" height="8"></rect>
            <rect id="Rectangle-Copy-31" x="40" y="24" width="8" height="8"></rect>
            <rect id="Rectangle-Copy-32" x="48" y="32" width="8" height="8"></rect>
            <rect id="Rectangle-Copy-33" x="40" y="40" width="8" height="8"></rect>
            <rect id="Rectangle-Copy-28" x="32" y="32" width="8" height="8"></rect>
        </g>
    </g>
</svg>