<?xml version="1.0" encoding="UTF-8"?>
<svg width="192px" height="64px" viewBox="0 0 192 64" version="1.1" xmlns="http://www.w3.org/2000/svg" xmlns:xlink="http://www.w3.org/1999/xlink">
    <title>eye-animation</title>
    <g id="eye-animation" stroke="none" stroke-width="1" fill="none" fill-rule="evenodd">
        <g id="Group" transform="translate(4.000000, 12.000000)" fill="#EA5E52">
            <rect id="Rectangle-Copy-23" x="0" y="16" width="8" height="8"></rect>
            <rect id="Rectangle-Copy-24" x="8" y="8" width="8" height="8"></rect>
            <rect id="Rectangle-Copy-30" x="8" y="24" width="8" height="8"></rect>
            <rect id="Rectangle-Copy-25" x="16" y="0" width="8" height="8"></rect>
            <rect id="Rectangle-Copy-32" x="16" y="32" width="8" height="8"></rect>
            <rect id="Rectangle-Copy-26" x="24" y="0" width="8" height="8"></rect>
            <rect id="Rectangle-Copy-35" x="24" y="16" width="8" height="8"></rect>
            <rect id="Rectangle-Copy-33" x="24" y="32" width="8" height="8"></rect>
            <rect id="Rectangle-Copy-27" x="32" y="0" width="8" height="8"></rect>
            <rect id="Rectangle-Copy-34" x="32" y="32" width="8" height="8"></rect>
            <rect id="Rectangle-Copy-28" x="40" y="8" width="8" height="8"></rect>
            <rect id="Rectangle-Copy-31" x="40" y="24" width="8" height="8"></rect>
            <rect id="Rectangle-Copy-29" x="48" y="16" width="8" height="8"></rect>
        </g>
        <g id="Group-Copy" transform="translate(68.000000, 20.000000)" fill="#EA5E52">
            <rect id="Rectangle-Copy-23" x="0" y="8" width="8" height="8"></rect>
            <rect id="Rectangle-Copy-24" x="8" y="0" width="8" height="8"></rect>
            <rect id="Rectangle-Copy-30" x="8" y="16" width="8" height="8"></rect>
            <rect id="Rectangle-Copy-25" x="16" y="0" width="8" height="8"></rect>
            <rect id="Rectangle-Copy-32" x="16" y="16" width="8" height="8"></rect>
            <rect id="Rectangle-Copy-26" x="24" y="0" width="8" height="8"></rect>
            <rect id="Rectangle-Copy-35" x="24" y="8" width="8" height="8"></rect>
            <rect id="Rectangle-Copy-33" x="24" y="16" width="8" height="8"></rect>
            <rect id="Rectangle-Copy-27" x="32" y="0" width="8" height="8"></rect>
            <rect id="Rectangle-Copy-34" x="32" y="16" width="8" height="8"></rect>
            <rect id="Rectangle-Copy-28" x="40" y="0" width="8" height="8"></rect>
            <rect id="Rectangle-Copy-31" x="40" y="16" width="8" height="8"></rect>
            <rect id="Rectangle-Copy-29" x="48" y="8" width="8" height="8"></rect>
        </g>
        <g id="Group-Copy-2" transform="translate(140.000000, 28.000000)" fill="#EA5E52">
            <rect id="Rectangle-Copy-24" x="0" y="0" width="8" height="8"></rect>
            <rect id="Rectangle-Copy-25" x="8" y="0" width="8" height="8"></rect>
            <rect id="Rectangle-Copy-33" x="16" y="0" width="8" height="8"></rect>
            <rect id="Rectangle-Copy-27" x="24" y="0" width="8" height="8"></rect>
            <rect id="Rectangle-Copy-28" x="32" y="0" width="8" height="8"></rect>
        </g>
    </g>
</svg>