<?xml version="1.0" encoding="UTF-8"?>
<svg width="192px" height="64px" viewBox="0 0 192 64" version="1.1" xmlns="http://www.w3.org/2000/svg" xmlns:xlink="http://www.w3.org/1999/xlink">
    <title>home-animation</title>
    <g id="home-animation" stroke="none" stroke-width="1" fill="none" fill-rule="evenodd">
        <g id="Group">
            <rect id="Rectangle" x="0" y="0" width="64" height="64"></rect>
            <rect id="Rectangle-Copy-19" fill="#039078" x="24" y="48" width="8" height="8"></rect>
            <rect id="Rectangle-Copy-20" fill="#039078" x="24" y="40" width="8" height="8"></rect>
            <rect id="Rectangle-Copy-21" fill="#039078" x="24" y="32" width="8" height="8"></rect>
            <rect id="Rectangle-Copy-31" fill="#039078" x="0" y="32" width="8" height="8"></rect>
            <rect id="Rectangle-Copy-32" fill="#039078" x="8" y="40" width="8" height="8"></rect>
            <rect id="Rectangle-Copy-33" fill="#039078" x="8" y="48" width="8" height="8"></rect>
            <rect id="Rectangle-Copy-22" fill="#039078" x="24" y="24" width="8" height="8"></rect>
            <rect id="Rectangle-Copy-23" fill="#039078" x="32" y="16" width="8" height="8"></rect>
            <rect id="Rectangle-Copy-24" fill="#039078" x="40" y="16" width="8" height="8"></rect>
            <rect id="Rectangle-Copy-25" fill="#039078" x="48" y="24" width="8" height="8"></rect>
            <rect id="Rectangle-Copy-26" fill="#039078" x="48" y="32" width="8" height="8"></rect>
            <rect id="Rectangle-Copy-29" fill="#039078" x="36" y="32" width="8" height="8"></rect>
            <rect id="Rectangle-Copy-30" fill="#039078" x="36" y="48" width="8" height="8"></rect>
            <rect id="Rectangle-Copy-27" fill="#039078" x="48" y="40" width="8" height="8"></rect>
            <rect id="Rectangle-Copy-28" fill="#039078" x="48" y="48" width="8" height="8"></rect>
        </g>
        <g id="Group-Copy" transform="translate(64.000000, 0.000000)">
            <rect id="Rectangle" x="0" y="0" width="64" height="64"></rect>
            <rect id="Rectangle-Copy-19" fill="#039078" x="24" y="48" width="8" height="8"></rect>
            <rect id="Rectangle-Copy-20" fill="#039078" x="24" y="40" width="8" height="8"></rect>
            <rect id="Rectangle-Copy-21" fill="#039078" x="24" y="32" width="8" height="8"></rect>
            <rect id="Rectangle-Copy-31" fill="#039078" x="0" y="32" width="8" height="8"></rect>
            <rect id="Rectangle-Copy-34" fill="#039078" x="8" y="24" width="8" height="8"></rect>
            <rect id="Rectangle-Copy-32" fill="#039078" x="8" y="40" width="8" height="8"></rect>
            <rect id="Rectangle-Copy-33" fill="#039078" x="8" y="48" width="8" height="8"></rect>
            <rect id="Rectangle-Copy-22" fill="#039078" x="24" y="24" width="8" height="8"></rect>
            <rect id="Rectangle-Copy-23" fill="#039078" x="32" y="16" width="8" height="8"></rect>
            <rect id="Rectangle-Copy-24" fill="#039078" x="40" y="16" width="8" height="8"></rect>
            <rect id="Rectangle-Copy-25" fill="#039078" x="48" y="24" width="8" height="8"></rect>
            <rect id="Rectangle-Copy-26" fill="#039078" x="48" y="32" width="8" height="8"></rect>
            <rect id="Rectangle-Copy-29" fill="#039078" x="36" y="32" width="8" height="8"></rect>
            <rect id="Rectangle-Copy-30" fill="#039078" x="36" y="48" width="8" height="8"></rect>
            <rect id="Rectangle-Copy-27" fill="#039078" x="48" y="40" width="8" height="8"></rect>
            <rect id="Rectangle-Copy-28" fill="#039078" x="48" y="48" width="8" height="8"></rect>
        </g>
        <g id="Group-Copy-2" transform="translate(128.000000, 0.000000)">
            <rect id="Rectangle" x="0" y="0" width="64" height="64"></rect>
            <rect id="Rectangle-Copy-19" fill="#039078" x="24" y="48" width="8" height="8"></rect>
            <rect id="Rectangle-Copy-20" fill="#039078" x="24" y="40" width="8" height="8"></rect>
            <rect id="Rectangle-Copy-21" fill="#039078" x="24" y="32" width="8" height="8"></rect>
            <rect id="Rectangle-Copy-31" fill="#039078" x="0" y="32" width="8" height="8"></rect>
            <rect id="Rectangle-Copy-34" fill="#039078" x="8" y="24" width="8" height="8"></rect>
            <rect id="Rectangle-Copy-35" fill="#039078" x="0" y="16" width="8" height="8"></rect>
            <rect id="Rectangle-Copy-32" fill="#039078" x="8" y="40" width="8" height="8"></rect>
            <rect id="Rectangle-Copy-33" fill="#039078" x="8" y="48" width="8" height="8"></rect>
            <rect id="Rectangle-Copy-22" fill="#039078" x="24" y="24" width="8" height="8"></rect>
            <rect id="Rectangle-Copy-23" fill="#039078" x="32" y="16" width="8" height="8"></rect>
            <rect id="Rectangle-Copy-24" fill="#039078" x="40" y="16" width="8" height="8"></rect>
            <rect id="Rectangle-Copy-25" fill="#039078" x="48" y="24" width="8" height="8"></rect>
            <rect id="Rectangle-Copy-26" fill="#039078" x="48" y="32" width="8" height="8"></rect>
            <rect id="Rectangle-Copy-29" fill="#039078" x="36" y="32" width="8" height="8"></rect>
            <rect id="Rectangle-Copy-30" fill="#039078" x="36" y="48" width="8" height="8"></rect>
            <rect id="Rectangle-Copy-27" fill="#039078" x="48" y="40" width="8" height="8"></rect>
            <rect id="Rectangle-Copy-28" fill="#039078" x="48" y="48" width="8" height="8"></rect>
        </g>
    </g>
</svg>