<?xml version="1.0" encoding="UTF-8"?>
<svg width="192px" height="64px" viewBox="0 0 192 64" version="1.1" xmlns="http://www.w3.org/2000/svg" xmlns:xlink="http://www.w3.org/1999/xlink">
    <title>pen-animation</title>
    <g id="pen-animation" stroke="none" stroke-width="1" fill="none" fill-rule="evenodd">
        <g id="Group-Copy-5" transform="translate(8.000000, 0.000000)" fill="#398BFF">
            <rect id="Rectangle-Copy-43" x="0" y="48" width="8" height="8"></rect>
            <rect id="Rectangle-Copy-44" x="8" y="40" width="8" height="8"></rect>
            <rect id="Rectangle-Copy-45" x="16" y="32" width="8" height="8"></rect>
            <rect id="Rectangle-Copy-48" x="16" y="24" width="8" height="8"></rect>
            <rect id="Rectangle-Copy-49" x="16" y="16" width="8" height="8"></rect>
            <rect id="Rectangle-Copy-50" x="24" y="8" width="8" height="8"></rect>
            <rect id="Rectangle-Copy-51" x="32" y="0" width="8" height="8"></rect>
            <rect id="Rectangle-Copy-52" x="40" y="0" width="8" height="8"></rect>
            <rect id="Rectangle-Copy-53" x="48" y="0" width="8" height="8"></rect>
            <rect id="Rectangle-Copy-54" x="48" y="8" width="8" height="8"></rect>
            <rect id="Rectangle-Copy-55" x="48" y="16" width="8" height="8"></rect>
            <rect id="Rectangle-Copy-56" x="40" y="24" width="8" height="8"></rect>
            <rect id="Rectangle-Copy-46" x="24" y="32" width="8" height="8"></rect>
            <rect id="Rectangle-Copy-47" x="32" y="32" width="8" height="8"></rect>
        </g>
        <g id="Group-Copy-6" transform="translate(72.000000, 0.000000)" fill="#398BFF">
            <rect id="Rectangle-Copy-43" x="8" y="48" width="8" height="8"></rect>
            <rect id="Rectangle-Copy-57" x="0" y="48" width="8" height="8"></rect>
            <rect id="Rectangle-Copy-44" x="16" y="40" width="8" height="8"></rect>
            <rect id="Rectangle-Copy-45" x="24" y="32" width="8" height="8"></rect>
            <rect id="Rectangle-Copy-48" x="24" y="24" width="8" height="8"></rect>
            <rect id="Rectangle-Copy-49" x="24" y="16" width="8" height="8"></rect>
            <rect id="Rectangle-Copy-50" x="32" y="8" width="8" height="8"></rect>
            <rect id="Rectangle-Copy-51" x="40" y="0" width="8" height="8"></rect>
            <rect id="Rectangle-Copy-52" x="48" y="0" width="8" height="8"></rect>
            <rect id="Rectangle-Copy-56" x="48" y="24" width="8" height="8"></rect>
            <rect id="Rectangle-Copy-46" x="32" y="32" width="8" height="8"></rect>
            <rect id="Rectangle-Copy-47" x="40" y="32" width="8" height="8"></rect>
        </g>
        <g id="Group-Copy-7" transform="translate(136.000000, 0.000000)" fill="#398BFF">
            <rect id="Rectangle-Copy-43" x="16" y="48" width="8" height="8"></rect>
            <rect id="Rectangle-Copy-58" x="8" y="48" width="8" height="8"></rect>
            <rect id="Rectangle-Copy-59" x="0" y="48" width="8" height="8"></rect>
            <rect id="Rectangle-Copy-44" x="24" y="40" width="8" height="8"></rect>
            <rect id="Rectangle-Copy-45" x="32" y="32" width="8" height="8"></rect>
            <rect id="Rectangle-Copy-48" x="32" y="24" width="8" height="8"></rect>
            <rect id="Rectangle-Copy-49" x="32" y="16" width="8" height="8"></rect>
            <rect id="Rectangle-Copy-50" x="40" y="8" width="8" height="8"></rect>
            <rect id="Rectangle-Copy-51" x="48" y="0" width="8" height="8"></rect>
            <rect id="Rectangle-Copy-46" x="40" y="32" width="8" height="8"></rect>
            <rect id="Rectangle-Copy-47" x="48" y="32" width="8" height="8"></rect>
        </g>
    </g>
</svg>