<?xml version="1.0" encoding="UTF-8"?>
<svg width="192px" height="64px" viewBox="0 0 192 64" version="1.1" xmlns="http://www.w3.org/2000/svg" xmlns:xlink="http://www.w3.org/1999/xlink">
    <title>star-animation</title>
    <g id="star-animation" stroke="none" stroke-width="1" fill="none" fill-rule="evenodd">
        <g id="Group">
            <rect id="Rectangle" x="0" y="0" width="64" height="64"></rect>
            <rect id="Rectangle" fill="#F8BE04" x="28" y="28" width="8" height="8"></rect>
            <rect id="Rectangle-Copy-7" fill="#F8BE04" x="36" y="28" width="8" height="8"></rect>
            <rect id="Rectangle-Copy-9" fill="#F8BE04" x="36" y="20" width="8" height="8"></rect>
            <rect id="Rectangle-Copy-17" fill="#F8BE04" x="44" y="12" width="8" height="8"></rect>
            <rect id="Rectangle-Copy-8" fill="#F8BE04" x="44" y="28" width="8" height="8"></rect>
            <rect id="Rectangle-Copy-16" fill="#F8BE04" x="52" y="28" width="8" height="8"></rect>
            <rect id="Rectangle-Copy-5" fill="#F8BE04" x="20" y="28" width="8" height="8"></rect>
            <rect id="Rectangle-Copy-6" fill="#F8BE04" x="12" y="28" width="8" height="8"></rect>
            <rect id="Rectangle-Copy-15" fill="#F8BE04" x="4" y="28" width="8" height="8"></rect>
            <rect id="Rectangle-Copy-3" fill="#F8BE04" x="28" y="36" width="8" height="8"></rect>
            <rect id="Rectangle-Copy-12" fill="#F8BE04" x="36" y="36" width="8" height="8"></rect>
            <rect id="Rectangle-Copy-20" fill="#F8BE04" x="44" y="44" width="8" height="8"></rect>
            <rect id="Rectangle-Copy-4" fill="#F8BE04" x="28" y="44" width="8" height="8"></rect>
            <rect id="Rectangle-Copy-14" fill="#F8BE04" x="28" y="52" width="8" height="8"></rect>
            <rect id="Rectangle-Copy" fill="#F8BE04" x="28" y="20" width="8" height="8"></rect>
            <rect id="Rectangle-Copy-10" fill="#F8BE04" x="20" y="20" width="8" height="8"></rect>
            <rect id="Rectangle-Copy-18" fill="#F8BE04" x="12" y="12" width="8" height="8"></rect>
            <rect id="Rectangle-Copy-11" fill="#F8BE04" x="20" y="36" width="8" height="8"></rect>
            <rect id="Rectangle-Copy-19" fill="#F8BE04" x="12" y="44" width="8" height="8"></rect>
            <rect id="Rectangle-Copy-2" fill="#F8BE04" x="28" y="12" width="8" height="8"></rect>
            <rect id="Rectangle-Copy-13" fill="#F8BE04" x="28" y="4" width="8" height="8"></rect>
        </g>
        <g id="Group-Copy-2" transform="translate(128.000000, 0.000000)">
            <rect id="Rectangle" x="0" y="0" width="64" height="64"></rect>
            <rect id="Rectangle" fill="#F8BE04" x="28" y="28" width="8" height="8"></rect>
            <rect id="Rectangle-Copy-7" fill="#F8BE04" x="36" y="28" width="8" height="8"></rect>
            <rect id="Rectangle-Copy-9" fill="#F8BE04" x="36" y="20" width="8" height="8"></rect>
            <rect id="Rectangle-Copy-17" fill="#F8BE04" x="52" y="4" width="8" height="8"></rect>
            <rect id="Rectangle-Copy-8" fill="#F8BE04" x="44" y="28" width="8" height="8"></rect>
            <rect id="Rectangle-Copy-16" fill="#F8BE04" x="52" y="28" width="8" height="8"></rect>
            <rect id="Rectangle-Copy-5" fill="#F8BE04" x="20" y="28" width="8" height="8"></rect>
            <rect id="Rectangle-Copy-6" fill="#F8BE04" x="12" y="28" width="8" height="8"></rect>
            <rect id="Rectangle-Copy-15" fill="#F8BE04" x="4" y="28" width="8" height="8"></rect>
            <rect id="Rectangle-Copy-3" fill="#F8BE04" x="28" y="36" width="8" height="8"></rect>
            <rect id="Rectangle-Copy-12" fill="#F8BE04" x="36" y="36" width="8" height="8"></rect>
            <rect id="Rectangle-Copy-20" fill="#F8BE04" x="52" y="52" width="8" height="8"></rect>
            <rect id="Rectangle-Copy-4" fill="#F8BE04" x="28" y="44" width="8" height="8"></rect>
            <rect id="Rectangle-Copy-14" fill="#F8BE04" x="28" y="52" width="8" height="8"></rect>
            <rect id="Rectangle-Copy" fill="#F8BE04" x="28" y="20" width="8" height="8"></rect>
            <rect id="Rectangle-Copy-10" fill="#F8BE04" x="20" y="20" width="8" height="8"></rect>
            <rect id="Rectangle-Copy-18" fill="#F8BE04" x="4" y="4" width="8" height="8"></rect>
            <rect id="Rectangle-Copy-11" fill="#F8BE04" x="20" y="36" width="8" height="8"></rect>
            <rect id="Rectangle-Copy-19" fill="#F8BE04" x="4" y="52" width="8" height="8"></rect>
            <rect id="Rectangle-Copy-2" fill="#F8BE04" x="28" y="12" width="8" height="8"></rect>
            <rect id="Rectangle-Copy-13" fill="#F8BE04" x="28" y="4" width="8" height="8"></rect>
        </g>
        <g id="Group-Copy" transform="translate(64.000000, 0.000000)">
            <rect id="Rectangle" x="0" y="0" width="64" height="64"></rect>
            <rect id="Rectangle" fill="#F8BE04" x="28" y="28" width="8" height="8"></rect>
            <rect id="Rectangle-Copy-7" fill="#F8BE04" x="36" y="28" width="8" height="8"></rect>
            <rect id="Rectangle-Copy-9" fill="#F8BE04" x="44" y="12" width="8" height="8"></rect>
            <rect id="Rectangle-Copy-17" fill="#F8BE04" x="52" y="4" width="8" height="8"></rect>
            <rect id="Rectangle-Copy-8" fill="#F8BE04" x="44" y="28" width="8" height="8"></rect>
            <rect id="Rectangle-Copy-5" fill="#F8BE04" x="20" y="28" width="8" height="8"></rect>
            <rect id="Rectangle-Copy-6" fill="#F8BE04" x="12" y="28" width="8" height="8"></rect>
            <rect id="Rectangle-Copy-3" fill="#F8BE04" x="28" y="36" width="8" height="8"></rect>
            <rect id="Rectangle-Copy-12" fill="#F8BE04" x="44" y="44" width="8" height="8"></rect>
            <rect id="Rectangle-Copy-22" fill="#F8BE04" x="52" y="52" width="8" height="8"></rect>
            <rect id="Rectangle-Copy-4" fill="#F8BE04" x="28" y="44" width="8" height="8"></rect>
            <rect id="Rectangle-Copy" fill="#F8BE04" x="28" y="20" width="8" height="8"></rect>
            <rect id="Rectangle-Copy-10" fill="#F8BE04" x="13" y="12" width="8" height="8"></rect>
            <rect id="Rectangle-Copy-21" fill="#F8BE04" x="4" y="4" width="8" height="8"></rect>
            <rect id="Rectangle-Copy-11" fill="#F8BE04" x="13" y="44" width="8" height="8"></rect>
            <rect id="Rectangle-Copy-19" fill="#F8BE04" x="5" y="52" width="8" height="8"></rect>
            <rect id="Rectangle-Copy-2" fill="#F8BE04" x="28" y="12" width="8" height="8"></rect>
        </g>
    </g>
</svg>