<svg xmlns="http://www.w3.org/2000/svg" xmlns:xlink="http://www.w3.org/1999/xlink" viewBox="0 0 56 56"><defs><style>.a{clip-path:url(#b);}.b{fill:none;}.c{fill:#ffd700;}.d{fill:none;}</style><clipPath id="b"><rect width="56" height="56"/></clipPath></defs><g id="a" class="a"><rect class="d" width="56" height="56"/><rect class="b" width="56" height="56"/><rect class="c" width="8" height="8" transform="translate(24 24)"/><rect class="c" width="8" height="8" transform="translate(32 24)"/><rect class="c" width="8" height="8" transform="translate(40 24)"/><rect class="c" width="8" height="8" transform="translate(48 24)"/><rect class="c" width="8" height="8" transform="translate(24 32)"/><rect class="c" width="8" height="8" transform="translate(24 16)"/><rect class="c" width="8" height="8" transform="translate(24 8)"/><rect class="c" width="8" height="8" transform="translate(24)"/><rect class="c" width="8" height="8" transform="translate(24 40)"/><rect class="c" width="8" height="8" transform="translate(24 48)"/><rect class="c" width="8" height="8" transform="translate(16 24)"/><rect class="c" width="8" height="8" transform="translate(8 24)"/><rect class="c" width="8" height="8" transform="translate(0 24)"/><rect class="c" width="8" height="8" transform="translate(32 16)"/><rect class="c" width="8" height="8" transform="translate(40 8)"/><rect class="c" width="8" height="8" transform="translate(16 32)"/><rect class="c" width="8" height="8" transform="translate(8 40)"/><rect class="c" width="8" height="8" transform="translate(32 32)"/><rect class="c" width="8" height="8" transform="translate(40 40)"/><rect class="c" width="8" height="8" transform="translate(16 16)"/><rect class="c" width="8" height="8" transform="translate(8 8)"/></g></svg>
